<?xml version="1.0" encoding="UTF-8" standalone="no"?>
<!-- Created with Inkscape (http://www.inkscape.org/) -->

<svg
   xmlns:dc="http://purl.org/dc/elements/1.1/"
   xmlns:cc="http://creativecommons.org/ns#"
   xmlns:rdf="http://www.w3.org/1999/02/22-rdf-syntax-ns#"
   xmlns:svg="http://www.w3.org/2000/svg"
   xmlns="http://www.w3.org/2000/svg"
   xmlns:xlink="http://www.w3.org/1999/xlink"
   xmlns:sodipodi="http://sodipodi.sourceforge.net/DTD/sodipodi-0.dtd"
   xmlns:inkscape="http://www.inkscape.org/namespaces/inkscape"
   width="256"
   height="256"
   id="svg2"
   sodipodi:version="0.32"
   inkscape:version="0.48.2 r9819"
   version="1.0"
   sodipodi:docname="gcdemu-connected.svg"
   inkscape:output_extension="org.inkscape.output.svg.inkscape"
   inkscape:export-filename="/home/nightz/Desktop/cdemu_icon2.png"
   inkscape:export-xdpi="16.879999"
   inkscape:export-ydpi="16.879999">
  <defs
     id="defs4">
    <inkscape:perspective
       sodipodi:type="inkscape:persp3d"
       inkscape:vp_x="0 : 128 : 1"
       inkscape:vp_y="0 : 1000 : 0"
       inkscape:vp_z="256 : 128 : 1"
       inkscape:persp3d-origin="128 : 85.333333 : 1"
       id="perspective100" />
    <linearGradient
       inkscape:collect="always"
       id="linearGradient3368">
      <stop
         style="stop-color:#e1e1e0;stop-opacity:1;"
         offset="0"
         id="stop3370" />
      <stop
         style="stop-color:#e1e1e0;stop-opacity:0;"
         offset="1"
         id="stop3372" />
    </linearGradient>
    <linearGradient
       inkscape:collect="always"
       id="linearGradient3314">
      <stop
         style="stop-color:#2e3436;stop-opacity:1;"
         offset="0"
         id="stop3316" />
      <stop
         style="stop-color:#2e3436;stop-opacity:0;"
         offset="1"
         id="stop3318" />
    </linearGradient>
    <linearGradient
       inkscape:collect="always"
       id="linearGradient3304">
      <stop
         style="stop-color:#2e3436;stop-opacity:1;"
         offset="0"
         id="stop3306" />
      <stop
         style="stop-color:#2e3436;stop-opacity:0;"
         offset="1"
         id="stop3308" />
    </linearGradient>
    <linearGradient
       inkscape:collect="always"
       id="linearGradient3294">
      <stop
         style="stop-color:#babdb6;stop-opacity:1;"
         offset="0"
         id="stop3296" />
      <stop
         style="stop-color:#babdb6;stop-opacity:0;"
         offset="1"
         id="stop3298" />
    </linearGradient>
    <linearGradient
       inkscape:collect="always"
       id="linearGradient3243">
      <stop
         style="stop-color:#fef4a4;stop-opacity:1;"
         offset="0"
         id="stop3245" />
      <stop
         style="stop-color:#fef4a4;stop-opacity:0;"
         offset="1"
         id="stop3247" />
    </linearGradient>
    <linearGradient
       id="linearGradient3216">
      <stop
         style="stop-color:#fab500;stop-opacity:1;"
         offset="0"
         id="stop3218" />
      <stop
         style="stop-color:#888a85;stop-opacity:0;"
         offset="1"
         id="stop3220" />
    </linearGradient>
    <filter
       inkscape:collect="always"
       id="filter3282">
      <feGaussianBlur
         inkscape:collect="always"
         stdDeviation="4.035"
         id="feGaussianBlur3284" />
    </filter>
    <linearGradient
       inkscape:collect="always"
       xlink:href="#linearGradient3368"
       id="linearGradient3374"
       x1="176"
       y1="80.5"
       x2="192"
       y2="101.5"
       gradientUnits="userSpaceOnUse" />
    <linearGradient
       inkscape:collect="always"
       xlink:href="#linearGradient3368"
       id="linearGradient3378"
       gradientUnits="userSpaceOnUse"
       x1="172"
       y1="71.5"
       x2="156"
       y2="55.5"
       gradientTransform="translate(4,1)" />
    <linearGradient
       inkscape:collect="always"
       xlink:href="#linearGradient3368"
       id="linearGradient3394"
       gradientUnits="userSpaceOnUse"
       x1="176"
       y1="80.5"
       x2="192"
       y2="101.5" />
    <linearGradient
       inkscape:collect="always"
       xlink:href="#linearGradient3368"
       id="linearGradient3396"
       gradientUnits="userSpaceOnUse"
       gradientTransform="translate(4,1)"
       x1="172"
       y1="71.5"
       x2="156"
       y2="55.5" />
    <linearGradient
       inkscape:collect="always"
       xlink:href="#linearGradient3368"
       id="linearGradient3527"
       gradientUnits="userSpaceOnUse"
       x1="176"
       y1="80.5"
       x2="192"
       y2="101.5" />
    <linearGradient
       inkscape:collect="always"
       xlink:href="#linearGradient3368"
       id="linearGradient3529"
       gradientUnits="userSpaceOnUse"
       gradientTransform="translate(4,1)"
       x1="172"
       y1="71.5"
       x2="156"
       y2="55.5" />
    <linearGradient
       inkscape:collect="always"
       xlink:href="#linearGradient3368"
       id="linearGradient3531"
       gradientUnits="userSpaceOnUse"
       x1="176"
       y1="80.5"
       x2="192"
       y2="101.5" />
    <linearGradient
       inkscape:collect="always"
       xlink:href="#linearGradient3368"
       id="linearGradient3533"
       gradientUnits="userSpaceOnUse"
       gradientTransform="translate(4,1)"
       x1="172"
       y1="71.5"
       x2="156"
       y2="55.5" />
    <linearGradient
       inkscape:collect="always"
       xlink:href="#linearGradient3304"
       id="linearGradient3535"
       gradientUnits="userSpaceOnUse"
       x1="433.5"
       y1="356.9653"
       x2="433.5"
       y2="236.28201" />
    <linearGradient
       inkscape:collect="always"
       xlink:href="#linearGradient3294"
       id="linearGradient3537"
       gradientUnits="userSpaceOnUse"
       x1="433.5"
       y1="69.759865"
       x2="433.5"
       y2="199.71979" />
    <linearGradient
       inkscape:collect="always"
       xlink:href="#linearGradient3314"
       id="linearGradient3539"
       gradientUnits="userSpaceOnUse"
       gradientTransform="matrix(1.0133156e-2,0,0,5.7048246e-2,364.90712,119.68568)"
       x1="434.96078"
       y1="253.0392"
       x2="434.96078"
       y2="201.99998" />
    <linearGradient
       inkscape:collect="always"
       xlink:href="#linearGradient3216"
       id="linearGradient3541"
       gradientUnits="userSpaceOnUse"
       x1="354.18573"
       y1="80.498695"
       x2="313.38666"
       y2="47.482891" />
    <linearGradient
       inkscape:collect="always"
       xlink:href="#linearGradient3216"
       id="linearGradient3543"
       gradientUnits="userSpaceOnUse"
       x1="354.18573"
       y1="80.498695"
       x2="313.38666"
       y2="47.482891" />
    <linearGradient
       inkscape:collect="always"
       xlink:href="#linearGradient3314"
       id="linearGradient3545"
       gradientUnits="userSpaceOnUse"
       gradientTransform="matrix(9.3734222e-3,0,0,5.7048246e-2,366.62538,119.68568)"
       x1="434.96078"
       y1="253.0392"
       x2="434.96078"
       y2="201.99998" />
    <linearGradient
       inkscape:collect="always"
       xlink:href="#linearGradient3243"
       id="linearGradient3547"
       gradientUnits="userSpaceOnUse"
       gradientTransform="matrix(3.7370421e-2,0,0,2.0920335e-2,355.40685,130.88951)"
       x1="389.5"
       y1="65.494873"
       x2="389.5"
       y2="123.49487" />
    <linearGradient
       inkscape:collect="always"
       xlink:href="#linearGradient3368"
       id="linearGradient3615"
       gradientUnits="userSpaceOnUse"
       x1="176"
       y1="80.5"
       x2="192"
       y2="101.5" />
    <linearGradient
       inkscape:collect="always"
       xlink:href="#linearGradient3368"
       id="linearGradient3617"
       gradientUnits="userSpaceOnUse"
       gradientTransform="translate(4,1)"
       x1="172"
       y1="71.5"
       x2="156"
       y2="55.5" />
    <linearGradient
       inkscape:collect="always"
       xlink:href="#linearGradient3368"
       id="linearGradient3619"
       gradientUnits="userSpaceOnUse"
       x1="176"
       y1="80.5"
       x2="192"
       y2="101.5" />
    <linearGradient
       inkscape:collect="always"
       xlink:href="#linearGradient3368"
       id="linearGradient3621"
       gradientUnits="userSpaceOnUse"
       gradientTransform="translate(4,1)"
       x1="172"
       y1="71.5"
       x2="156"
       y2="55.5" />
    <linearGradient
       inkscape:collect="always"
       xlink:href="#linearGradient3304"
       id="linearGradient3623"
       gradientUnits="userSpaceOnUse"
       x1="433.5"
       y1="356.9653"
       x2="433.5"
       y2="236.28201" />
    <linearGradient
       inkscape:collect="always"
       xlink:href="#linearGradient3294"
       id="linearGradient3625"
       gradientUnits="userSpaceOnUse"
       x1="433.5"
       y1="69.759865"
       x2="433.5"
       y2="199.71979" />
    <linearGradient
       inkscape:collect="always"
       xlink:href="#linearGradient3314"
       id="linearGradient3627"
       gradientUnits="userSpaceOnUse"
       gradientTransform="matrix(1.5199733e-2,0,0,8.5572369e-2,387.36068,114.52851)"
       x1="434.96078"
       y1="253.0392"
       x2="434.96078"
       y2="201.99998" />
    <linearGradient
       inkscape:collect="always"
       xlink:href="#linearGradient3216"
       id="linearGradient3629"
       gradientUnits="userSpaceOnUse"
       x1="354.18573"
       y1="80.498695"
       x2="313.38666"
       y2="47.482891" />
    <linearGradient
       inkscape:collect="always"
       xlink:href="#linearGradient3216"
       id="linearGradient3631"
       gradientUnits="userSpaceOnUse"
       x1="354.18573"
       y1="80.498695"
       x2="313.38666"
       y2="47.482891" />
    <linearGradient
       inkscape:collect="always"
       xlink:href="#linearGradient3314"
       id="linearGradient3633"
       gradientUnits="userSpaceOnUse"
       gradientTransform="matrix(1.4060133e-2,0,0,8.5572369e-2,389.93808,114.52851)"
       x1="434.96078"
       y1="253.0392"
       x2="434.96078"
       y2="201.99998" />
    <linearGradient
       inkscape:collect="always"
       xlink:href="#linearGradient3243"
       id="linearGradient3635"
       gradientUnits="userSpaceOnUse"
       gradientTransform="matrix(5.6055631e-2,0,0,3.1380503e-2,373.11028,131.33426)"
       x1="389.5"
       y1="65.494873"
       x2="389.5"
       y2="123.49487" />
    <linearGradient
       inkscape:collect="always"
       xlink:href="#linearGradient3368"
       id="linearGradient3134"
       gradientUnits="userSpaceOnUse"
       gradientTransform="matrix(-1,0,0,-1,255,258)"
       x1="176"
       y1="80.5"
       x2="192"
       y2="101.5" />
    <linearGradient
       inkscape:collect="always"
       xlink:href="#linearGradient3368"
       id="linearGradient3136"
       gradientUnits="userSpaceOnUse"
       gradientTransform="matrix(-1,0,0,-1,251,257)"
       x1="172"
       y1="71.5"
       x2="156"
       y2="55.5" />
    <linearGradient
       inkscape:collect="always"
       xlink:href="#linearGradient3368"
       id="linearGradient3138"
       gradientUnits="userSpaceOnUse"
       x1="176"
       y1="80.5"
       x2="192"
       y2="101.5" />
    <linearGradient
       inkscape:collect="always"
       xlink:href="#linearGradient3368"
       id="linearGradient3140"
       gradientUnits="userSpaceOnUse"
       gradientTransform="translate(4,1)"
       x1="172"
       y1="71.5"
       x2="156"
       y2="55.5" />
    <linearGradient
       inkscape:collect="always"
       xlink:href="#linearGradient3304"
       id="linearGradient3142"
       gradientUnits="userSpaceOnUse"
       x1="433.5"
       y1="356.9653"
       x2="433.5"
       y2="236.28201" />
    <linearGradient
       inkscape:collect="always"
       xlink:href="#linearGradient3294"
       id="linearGradient3144"
       gradientUnits="userSpaceOnUse"
       x1="433.5"
       y1="69.759865"
       x2="433.5"
       y2="199.71979" />
    <linearGradient
       inkscape:collect="always"
       xlink:href="#linearGradient3314"
       id="linearGradient3146"
       gradientUnits="userSpaceOnUse"
       gradientTransform="matrix(0.1481974,0,0,0.8343306,52.516634,-21.846977)"
       x1="434.96078"
       y1="253.0392"
       x2="434.96078"
       y2="201.99998" />
    <linearGradient
       inkscape:collect="always"
       xlink:href="#linearGradient3216"
       id="linearGradient3148"
       gradientUnits="userSpaceOnUse"
       x1="354.18573"
       y1="80.498695"
       x2="313.38666"
       y2="47.482891" />
    <linearGradient
       inkscape:collect="always"
       xlink:href="#linearGradient3216"
       id="linearGradient3150"
       gradientUnits="userSpaceOnUse"
       x1="354.18573"
       y1="80.498695"
       x2="313.38666"
       y2="47.482891" />
    <linearGradient
       inkscape:collect="always"
       xlink:href="#linearGradient3314"
       id="linearGradient3152"
       gradientUnits="userSpaceOnUse"
       gradientTransform="matrix(0.1370863,0,0,0.8343306,77.64624,-21.846977)"
       x1="434.96078"
       y1="253.0392"
       x2="434.96078"
       y2="201.99998" />
    <linearGradient
       inkscape:collect="always"
       xlink:href="#linearGradient3243"
       id="linearGradient3154"
       gradientUnits="userSpaceOnUse"
       gradientTransform="matrix(0.5465424,0,0,0.3059599,-86.424811,142.00907)"
       x1="389.5"
       y1="65.494873"
       x2="389.5"
       y2="123.49487" />
    <filter
       id="filter3285"
       inkscape:label="Desaturate"
       x="0"
       y="0"
       width="1"
       height="1"
       inkscape:menu="Color"
       inkscape:menu-tooltip="Render in shades of gray by reducing saturation to zero"
       color-interpolation-filters="sRGB">
      <feColorMatrix
         id="feColorMatrix3287"
         type="saturate"
         values="0" />
    </filter>
  </defs>
  <sodipodi:namedview
     id="base"
     pagecolor="#ffffff"
     bordercolor="#666666"
     borderopacity="1.0"
     gridtolerance="10000"
     guidetolerance="10"
     objecttolerance="10"
     inkscape:pageopacity="0.0"
     inkscape:pageshadow="2"
     inkscape:zoom="1"
     inkscape:cx="-93.58558"
     inkscape:cy="53.715412"
     inkscape:document-units="px"
     inkscape:current-layer="layer1"
     showgrid="false"
     inkscape:window-width="1280"
     inkscape:window-height="755"
     inkscape:window-x="0"
     inkscape:window-y="27"
     showborder="true"
     inkscape:showpageshadow="false"
     borderlayer="false"
     inkscape:window-maximized="0" />
  <metadata
     id="metadata7">
    <rdf:RDF>
      <cc:Work
         rdf:about="">
        <dc:format>image/svg+xml</dc:format>
        <dc:type
           rdf:resource="http://purl.org/dc/dcmitype/StillImage" />
        <cc:license
           rdf:resource="GPL" />
        <dc:title></dc:title>
        <dc:creator>
          <cc:Agent>
            <dc:title>Rômulo Fernandes Machado</dc:title>
          </cc:Agent>
        </dc:creator>
      </cc:Work>
    </rdf:RDF>
  </metadata>
  <g
     inkscape:label="Layer 1"
     inkscape:groupmode="layer"
     id="layer1">
    <g
       id="g3075"
       transform="matrix(0.95,0,0,0.95,6.4,6.4)"
       style="filter:url(#filter3285)">
      <path
         id="path2385"
         d="M 128,3.2820505 C 59.155699,3.2820505 3.2820503,59.155691 3.2820503,128 3.2820503,196.8443 59.155703,252.71795 128,252.71795 196.8443,252.71795 252.71795,196.8443 252.71795,128 252.71795,59.155699 196.84431,3.2820505 128,3.2820505 z m 0,92.9914535 c 17.51303,-10e-7 31.7265,14.213466 31.7265,31.726496 0,17.51303 -14.21347,31.7265 -31.7265,31.7265 -17.51303,0 -31.726496,-14.21347 -31.726496,-31.7265 0,-17.51303 14.213466,-31.726496 31.726496,-31.726496 z"
         style="fill:#c5d8ec;fill-opacity:1;stroke:none"
         inkscape:connector-curvature="0" />
      <path
         id="path2387"
         d="M 128,18.59829 C 67.610265,18.59829 18.598289,67.61027 18.59829,128 18.59829,188.38973 67.610268,237.40171 128,237.40171 188.38973,237.40171 237.4017,188.38974 237.40171,128 237.40171,67.610265 188.38973,18.59829 128,18.59829 z m 0,80.025338 c 16.21576,-1.1e-5 29.37637,13.160612 29.37637,29.376372 0,16.21576 -13.16061,29.37637 -29.37637,29.37637 -16.21576,0 -29.376383,-13.16061 -29.376383,-29.37637 0,-16.21576 13.160623,-29.376372 29.376383,-29.376372 z"
         style="fill:#a9c5e2;fill-opacity:1;stroke:none"
         inkscape:connector-curvature="0" />
      <g
         transform="matrix(1.0940171,0,0,1.0940171,-10.940172,-13.128206)"
         id="g3654">
        <path
           sodipodi:nodetypes="ccccc"
           id="path3390"
           d="m 110,148 c -7.20996,-3.79004 -1.45208,-0.54792 -6,-7 l -84,24 c 9.0361,25.47747 4.5764,25.11654 32,48 26.16429,-23.3744 42.28493,-44.2379 58,-65 z"
           style="opacity:0.8;fill:url(#linearGradient3134);fill-opacity:1;fill-rule:evenodd;stroke:none"
           inkscape:connector-curvature="0" />
        <path
           style="opacity:0.8;fill:url(#linearGradient3136);fill-opacity:1;fill-rule:evenodd;stroke:none"
           d="m 125,155 c -7.20996,-3.79004 -10.45208,-2.54792 -15,-9 l -59,68 c 17.713585,21.38348 0.924497,-1.44088 27,21 l 47,-80 z"
           id="path3392"
           sodipodi:nodetypes="ccccc"
           inkscape:connector-curvature="0" />
      </g>
      <g
         transform="matrix(1.0940171,0,0,1.0940171,-10.940172,-13.128206)"
         id="g3658">
        <path
           style="opacity:0.8;fill:url(#linearGradient3138);fill-opacity:1;fill-rule:evenodd;stroke:none"
           d="m 145,110 c 7.20996,3.79004 1.45208,0.54792 6,7 L 235,93 C 225.9639,67.522532 229.9236,67.383463 202.5,44.5 176.33571,67.874405 160.71507,89.237898 145,110 z"
           id="path3366"
           sodipodi:nodetypes="ccccc"
           inkscape:connector-curvature="0" />
        <path
           sodipodi:nodetypes="ccccc"
           id="path3376"
           d="m 130,103 c 7.20996,3.79004 10.45208,2.54792 15,9 l 57,-67 c -15.35894,-16.120314 2.79981,-0.161086 -25,-22 l -47,80 z"
           style="opacity:0.8;fill:url(#linearGradient3140);fill-opacity:1;fill-rule:evenodd;stroke:none"
           inkscape:connector-curvature="0" />
      </g>
      <path
         id="path2383"
         d="M 128,-8e-7 C 57.344,-8e-7 -1.1094017e-6,57.344 -1e-6,128 -1e-6,198.656 57.344,256 128,256 198.656,256 256,198.656 256,128 256,57.344001 198.656,-8e-7 128,-8e-7 z m 0,5.8803419 C 195.40424,5.8803411 250.11965,60.595756 250.11966,128 250.11966,195.40424 195.40424,250.11965 128,250.11966 60.595756,250.11966 5.8803409,195.40424 5.8803409,128 5.8803409,60.595755 60.595756,5.8803411 128,5.8803411 z m 0,90.3931629 c -17.51303,0 -31.726496,14.213466 -31.726496,31.726496 0,17.51303 14.213466,31.7265 31.726496,31.7265 17.51303,0 31.7265,-14.21347 31.7265,-31.7265 0,-17.51303 -14.21347,-31.726497 -31.7265,-31.726496 z m 0,1.470085 c 16.70703,0 30.25641,13.549381 30.25641,30.256411 1e-5,16.70703 -13.54938,30.25641 -30.25641,30.25641 C 111.29297,158.25642 97.743589,144.70703 97.743589,128 97.743589,111.29297 111.29297,97.743589 128,97.743589 z"
         style="fill:#000000;fill-opacity:1;stroke:none"
         inkscape:connector-curvature="0" />
      <g
         transform="matrix(1.0940171,0,0,1.0940171,-10.940172,-13.128206)"
         id="g3733">
        <path
           style="fill:#000000;fill-opacity:1;stroke:none"
           d="m 127,100 c -16.008,0 -29,12.992 -29,29 0,16.008 12.992,29 29,29 16.008,0 29,-12.992 29,-29 0,-16.008 -12.992,-29.000001 -29,-29 z m 0,5.375 c 13.03569,0 23.625,10.5893 23.625,23.625 -1e-5,13.0357 -10.5893,23.625 -23.625,23.625 -13.0357,0 -23.625,-10.5893 -23.625,-23.625 0,-13.03569 10.5893,-23.625 23.625,-23.625 z"
           id="path2389"
           inkscape:connector-curvature="0" />
        <path
           sodipodi:type="arc"
           style="fill:#555753;fill-opacity:1;stroke:none;filter:url(#filter3282)"
           id="path3274"
           sodipodi:cx="433.5"
           sodipodi:cy="225.5"
           sodipodi:rx="155.5"
           sodipodi:ry="113.5"
           d="M 589,225.5 C 589,288.18432 519.38028,339 433.5,339 347.61972,339 278,288.18432 278,225.5 278,162.81568 347.61972,112 433.5,112 519.38028,112 589,162.81568 589,225.5 z"
           transform="matrix(0.5465424,0,0,0.6674645,-109.92613,-21.513245)" />
        <path
           transform="matrix(0.5043654,0,0,0.6159559,-91.642446,-9.8980749)"
           d="M 589,225.5 C 589,288.18432 519.38028,339 433.5,339 347.61972,339 278,288.18432 278,225.5 278,162.81568 347.61972,112 433.5,112 519.38028,112 589,162.81568 589,225.5 z"
           sodipodi:ry="113.5"
           sodipodi:rx="155.5"
           sodipodi:cy="225.5"
           sodipodi:cx="433.5"
           id="path3276"
           style="fill:#888a85;fill-opacity:1;stroke:none"
           sodipodi:type="arc" />
        <path
           transform="matrix(0.4737856,0,0,0.5786104,-78.386101,-0.1417212)"
           d="M 589,225.5 C 589,288.18432 519.38028,339 433.5,339 347.61972,339 278,288.18432 278,225.5 278,162.81568 347.61972,112 433.5,112 519.38028,112 589,162.81568 589,225.5 z"
           sodipodi:ry="113.5"
           sodipodi:rx="155.5"
           sodipodi:cy="225.5"
           sodipodi:cx="433.5"
           id="path3302"
           style="fill:url(#linearGradient3142);fill-opacity:1;stroke:none"
           sodipodi:type="arc" />
        <path
           sodipodi:type="arc"
           style="fill:url(#linearGradient3144);fill-opacity:1;stroke:none"
           id="path3288"
           sodipodi:cx="433.5"
           sodipodi:cy="225.5"
           sodipodi:rx="155.5"
           sodipodi:ry="113.5"
           d="M 589,225.5 C 589,288.18432 519.38028,339 433.5,339 347.61972,339 278,288.18432 278,225.5 278,162.81568 347.61972,112 433.5,112 519.38028,112 589,162.81568 589,225.5 z"
           transform="matrix(0.3808374,0,0,0.3712504,-38.093021,25.283036)" />
        <rect
           style="fill:url(#linearGradient3146);fill-opacity:1;stroke:none"
           id="rect3312"
           width="17.783684"
           height="40.047871"
           x="106.75687"
           y="126.66387" />
        <g
           id="g3232"
           transform="matrix(0.5465424,0,0,0.6674645,-114.84502,135.67465)">
          <path
             transform="matrix(0.8945551,0.4469576,-0.542055,1.0848861,78.864301,-193.11099)"
             d="M 359,54.5 C 359,67.478692 344.00154,78 325.5,78 306.99846,78 292,67.478692 292,54.5 292,41.521308 306.99846,31 325.5,31 344.00154,31 359,41.521308 359,54.5 z"
             sodipodi:ry="23.5"
             sodipodi:rx="33.5"
             sodipodi:cy="54.5"
             sodipodi:cx="325.5"
             id="path3212"
             style="fill:#fdf5dd;fill-opacity:1;stroke:none"
             sodipodi:type="arc" />
          <path
             sodipodi:type="arc"
             style="fill:url(#linearGradient3148);fill-opacity:1;stroke:none"
             id="path3214"
             sodipodi:cx="325.5"
             sodipodi:cy="54.5"
             sodipodi:rx="33.5"
             sodipodi:ry="23.5"
             d="M 359,54.5 C 359,67.478692 344.00154,78 325.5,78 306.99846,78 292,67.478692 292,54.5 292,41.521308 306.99846,31 325.5,31 344.00154,31 359,41.521308 359,54.5 z"
             transform="matrix(0.7735374,0.386492,-0.4687244,0.9381199,114.25905,-165.43069)" />
          <g
             transform="translate(-67,28)"
             id="g3228">
            <path
               sodipodi:type="arc"
               style="fill:#2e3436;fill-opacity:1;stroke:none"
               id="path3224"
               sodipodi:cx="408"
               sodipodi:cy="-7.5"
               sodipodi:rx="10"
               sodipodi:ry="11.5"
               d="m 418,-7.5 c 0,6.3512746 -4.47715,11.5 -10,11.5 -5.52285,0 -10,-5.1487254 -10,-11.5 0,-6.351275 4.47715,-11.5 10,-11.5 5.52285,0 10,5.148725 10,11.5 z" />
            <path
               d="m 418,-7.5 c 0,6.3512746 -4.47715,11.5 -10,11.5 -5.52285,0 -10,-5.1487254 -10,-11.5 0,-6.351275 4.47715,-11.5 10,-11.5 5.52285,0 10,5.148725 10,11.5 z"
               sodipodi:ry="11.5"
               sodipodi:rx="10"
               sodipodi:cy="-7.5"
               sodipodi:cx="408"
               id="path3226"
               style="fill:#555753;fill-opacity:1;stroke:none"
               sodipodi:type="arc"
               transform="matrix(0.4782609,0,0,0.4782609,213.86957,-6.9130435)" />
          </g>
        </g>
        <g
           transform="matrix(-0.5465424,0,0,0.6674645,368.29845,135.67465)"
           id="g3260">
          <path
             sodipodi:type="arc"
             style="fill:#fdf5dd;fill-opacity:1;stroke:none"
             id="path3262"
             sodipodi:cx="325.5"
             sodipodi:cy="54.5"
             sodipodi:rx="33.5"
             sodipodi:ry="23.5"
             d="M 359,54.5 C 359,67.478692 344.00154,78 325.5,78 306.99846,78 292,67.478692 292,54.5 292,41.521308 306.99846,31 325.5,31 344.00154,31 359,41.521308 359,54.5 z"
             transform="matrix(0.8945551,0.4469576,-0.542055,1.0848861,78.864301,-193.11099)" />
          <path
             transform="matrix(0.7735374,0.386492,-0.4687244,0.9381199,114.25905,-165.43069)"
             d="M 359,54.5 C 359,67.478692 344.00154,78 325.5,78 306.99846,78 292,67.478692 292,54.5 292,41.521308 306.99846,31 325.5,31 344.00154,31 359,41.521308 359,54.5 z"
             sodipodi:ry="23.5"
             sodipodi:rx="33.5"
             sodipodi:cy="54.5"
             sodipodi:cx="325.5"
             id="path3264"
             style="fill:url(#linearGradient3150);fill-opacity:1;stroke:none"
             sodipodi:type="arc" />
          <g
             id="g3266"
             transform="translate(-67,28)">
            <path
               d="m 418,-7.5 c 0,6.3512746 -4.47715,11.5 -10,11.5 -5.52285,0 -10,-5.1487254 -10,-11.5 0,-6.351275 4.47715,-11.5 10,-11.5 5.52285,0 10,5.148725 10,11.5 z"
               sodipodi:ry="11.5"
               sodipodi:rx="10"
               sodipodi:cy="-7.5"
               sodipodi:cx="408"
               id="path3268"
               style="fill:#2e3436;fill-opacity:1;stroke:none"
               sodipodi:type="arc" />
            <path
               transform="matrix(0.4782609,0,0,0.4782609,213.86957,-6.9130435)"
               sodipodi:type="arc"
               style="fill:#555753;fill-opacity:1;stroke:none"
               id="path3270"
               sodipodi:cx="408"
               sodipodi:cy="-7.5"
               sodipodi:rx="10"
               sodipodi:ry="11.5"
               d="m 418,-7.5 c 0,6.3512746 -4.47715,11.5 -10,11.5 -5.52285,0 -10,-5.1487254 -10,-11.5 0,-6.351275 4.47715,-11.5 10,-11.5 5.52285,0 10,5.148725 10,11.5 z" />
          </g>
        </g>
        <rect
           y="126.66387"
           x="127.81981"
           height="40.047871"
           width="16.450352"
           id="rect3322"
           style="fill:url(#linearGradient3152);fill-opacity:1;stroke:none" />
        <g
           id="g3724"
           transform="matrix(1.1254641,0,0,1.1254641,-15.865364,-22.0497)">
          <path
             sodipodi:nodetypes="cccc"
             id="path3204"
             d="m 78.630994,169.2395 c 31.554946,-14.69507 62.885976,-15.0626 95.644916,0 -21.78928,5.84026 -34.19177,15.18374 -47.54919,24.17083 -14.30398,-10.314 -29.457838,-19.51787 -48.095726,-24.17083 z"
             style="fill:#edd400;fill-opacity:1;fill-rule:evenodd;stroke:none"
             inkscape:connector-curvature="0" />
          <path
             style="fill:#fce94f;fill-opacity:1;fill-rule:evenodd;stroke:none"
             d="m 85.604356,169.86706 c 27.933774,-6.91571 55.004874,-5.32125 81.698194,0 -18.61201,5.17114 -29.206,13.44413 -40.61567,21.40155 -12.21821,-9.13232 -25.16237,-17.28169 -41.082524,-21.40155 z"
             id="path3206"
             sodipodi:nodetypes="cccc"
             inkscape:connector-curvature="0" />
          <path
             sodipodi:nodetypes="cccc"
             id="path3241"
             d="m 85.604356,169.86706 c 28.674424,-15.06286 55.593904,-11.80058 81.698194,0 -18.61201,5.17114 -29.206,13.44413 -40.61567,21.40155 -12.21821,-9.13232 -25.16237,-17.28169 -41.082524,-21.40155 z"
             style="fill:url(#linearGradient3154);fill-opacity:1;fill-rule:evenodd;stroke:none"
             inkscape:connector-curvature="0" />
          <path
             transform="matrix(0.5465424,0,0,0.382883,-86.424811,92.496932)"
             d="m 383,217 c 0,7.1797 -2.91015,13 -6.5,13 -3.58985,0 -6.5,-5.8203 -6.5,-13 0,-7.1797 2.91015,-13 6.5,-13 3.58985,0 6.5,5.8203 6.5,13 z"
             sodipodi:ry="13"
             sodipodi:rx="6.5"
             sodipodi:cy="217"
             sodipodi:cx="376.5"
             id="path3208"
             style="fill:#2e3436;fill-opacity:1;stroke:none"
             sodipodi:type="arc" />
          <path
             sodipodi:type="arc"
             style="fill:#2e3436;fill-opacity:1;stroke:none"
             id="path3210"
             sodipodi:cx="376.5"
             sodipodi:cy="217"
             sodipodi:rx="6.5"
             sodipodi:ry="13"
             d="m 383,217 c 0,7.1797 -2.91015,13 -6.5,13 -3.58985,0 -6.5,-5.8203 -6.5,-13 0,-7.1797 2.91015,-13 6.5,-13 3.58985,0 6.5,5.8203 6.5,13 z"
             transform="matrix(0.5465424,0,0,0.382883,-72.214709,92.496932)" />
        </g>
      </g>
    </g>
  </g>
</svg>
